<svg width="30" height="27" viewBox="0 0 30 27" fill="none" xmlns="http://www.w3.org/2000/svg">
<path d="M29.7 20.7L24.3 15.3C24 15.15 23.7 15 23.4 15H19.2C18.6 15 18 15.6 18 16.2V20.4C18 20.7 18.15 21 18.3 21.3L23.7 26.7C23.85 26.85 24.15 27 24.6 27C24.9 27 25.2 26.85 25.5 26.7L29.7 22.5C29.85 22.35 30 22.05 30 21.6C30 21.3 29.85 21 29.7 20.7ZM20.1 18C19.65 18 19.2 17.55 19.2 17.1C19.2 16.65 19.65 16.2 20.1 16.2C20.55 16.2 21 16.65 21 17.1C21 17.55 20.55 18 20.1 18ZM12 0C8.7 0 6 2.7 6 6C6 9.3 8.7 12 12 12C15.3 12 18 9.3 18 6C18 2.7 15.3 0 12 0ZM12 15C5.4 15 0 17.7 0 21V24H16.8L16.2 23.4C15.45 22.65 15 21.6 15 20.4V16.2C15 15.9 15 15.6 15.15 15.15C14.1 15 13.05 15 12 15Z" fill="#726E6E"/>
</svg>
