<svg width="33" height="33" viewBox="0 0 33 33" fill="none" xmlns="http://www.w3.org/2000/svg">
<path d="M16.312 0.0463897C15.7765 0.0875817 15.241 0.375926 14.9115 0.829038L5.27258 12.404H0V16.5232H4.1192V31.5995C4.1192 32.3409 4.77827 33 5.51973 33H27.3927C28.1341 33 28.7932 32.3409 28.7932 31.5995V16.5232H32.9124V12.404H27.6398C26.5277 11.0447 17.7949 0.623078 17.7126 0.540694C17.2595 0.169966 16.8063 -0.0359943 16.312 0.0051977V0.0463897ZM16.4356 5.31897L22.3673 12.404H10.504L16.4356 5.31897ZM10.2568 20.6424C11.4102 20.6424 12.3164 21.5486 12.3164 22.702V26.8212C12.3164 27.9746 11.4102 28.8808 10.2568 28.8808C9.10343 28.8808 8.19721 27.9746 8.19721 26.8212V22.702C8.19721 21.5486 9.10343 20.6424 10.2568 20.6424ZM22.6144 20.6424C23.7678 20.6424 24.674 21.5486 24.674 22.702V26.8212C24.674 27.9746 23.7678 28.8808 22.6144 28.8808C21.461 28.8808 20.5548 27.9746 20.5548 26.8212V22.702C20.5548 21.5486 21.461 20.6424 22.6144 20.6424Z" fill="#726E6E"/>
</svg>
