<svg width="45" height="45" viewBox="0 0 45 45" fill="none" xmlns="http://www.w3.org/2000/svg">
<path d="M22.5 0C10.125 0 0 10.125 0 22.5C0 34.875 10.125 45 22.5 45C34.875 45 45 34.875 45 22.5C45 10.125 34.875 0 22.5 0ZM22.5 5.625C31.8375 5.625 39.375 13.1625 39.375 22.5C39.375 31.8375 31.8375 39.375 22.5 39.375C13.1625 39.375 5.625 31.8375 5.625 22.5C5.625 13.1625 13.1625 5.625 22.5 5.625ZM33.75 11.25L16.875 16.875L11.25 33.75L28.125 28.125L33.75 11.25ZM22.5 19.6875C24.075 19.6875 25.3125 20.925 25.3125 22.5C25.3125 24.075 24.075 25.3125 22.5 25.3125C20.925 25.3125 19.6875 24.075 19.6875 22.5C19.6875 20.925 20.925 19.6875 22.5 19.6875Z" fill="#E32D38"/>
</svg>
