<svg width="695" height="340" viewBox="0 0 695 340" fill="none" xmlns="http://www.w3.org/2000/svg">
<path d="M23.1364 335H19.0114V323.364H23.1705C24.3409 323.364 25.3485 323.597 26.1932 324.062C27.0379 324.525 27.6875 325.189 28.142 326.057C28.6004 326.924 28.8295 327.962 28.8295 329.17C28.8295 330.383 28.6004 331.424 28.142 332.295C27.6875 333.167 27.0341 333.835 26.1818 334.301C25.3333 334.767 24.3182 335 23.1364 335ZM21.4716 332.892H23.0341C23.7614 332.892 24.3731 332.763 24.8693 332.506C25.3693 332.244 25.7443 331.841 25.9943 331.295C26.2481 330.746 26.375 330.038 26.375 329.17C26.375 328.311 26.2481 327.608 25.9943 327.062C25.7443 326.517 25.3712 326.116 24.875 325.858C24.3788 325.6 23.767 325.472 23.0398 325.472H21.4716V332.892ZM34.5497 335.17C33.6671 335.17 32.9039 334.983 32.2599 334.608C31.6198 334.229 31.1255 333.703 30.777 333.028C30.4285 332.35 30.2543 331.564 30.2543 330.67C30.2543 329.769 30.4285 328.981 30.777 328.307C31.1255 327.629 31.6198 327.102 32.2599 326.727C32.9039 326.348 33.6671 326.159 34.5497 326.159C35.4323 326.159 36.1937 326.348 36.8338 326.727C37.4777 327.102 37.974 327.629 38.3224 328.307C38.6709 328.981 38.8452 329.769 38.8452 330.67C38.8452 331.564 38.6709 332.35 38.3224 333.028C37.974 333.703 37.4777 334.229 36.8338 334.608C36.1937 334.983 35.4323 335.17 34.5497 335.17ZM34.5611 333.295C34.9626 333.295 35.2978 333.182 35.5668 332.955C35.8357 332.723 36.0384 332.409 36.1747 332.011C36.3149 331.614 36.3849 331.161 36.3849 330.653C36.3849 330.146 36.3149 329.693 36.1747 329.295C36.0384 328.898 35.8357 328.583 35.5668 328.352C35.2978 328.121 34.9626 328.006 34.5611 328.006C34.1558 328.006 33.8149 328.121 33.5384 328.352C33.2656 328.583 33.0592 328.898 32.919 329.295C32.7827 329.693 32.7145 330.146 32.7145 330.653C32.7145 331.161 32.7827 331.614 32.919 332.011C33.0592 332.409 33.2656 332.723 33.5384 332.955C33.8149 333.182 34.1558 333.295 34.5611 333.295ZM40.419 335V326.273H42.7259V327.812H42.8281C43.0099 327.301 43.313 326.898 43.7372 326.602C44.1615 326.307 44.669 326.159 45.2599 326.159C45.8584 326.159 46.3679 326.309 46.7884 326.608C47.2088 326.903 47.4891 327.305 47.6293 327.812H47.7202C47.8982 327.312 48.2202 326.913 48.6861 326.614C49.1558 326.311 49.7107 326.159 50.3509 326.159C51.1652 326.159 51.8262 326.419 52.3338 326.938C52.8452 327.453 53.1009 328.184 53.1009 329.131V335H50.6861V329.608C50.6861 329.123 50.5573 328.759 50.2997 328.517C50.0421 328.275 49.7202 328.153 49.3338 328.153C48.8944 328.153 48.5516 328.294 48.3054 328.574C48.0592 328.85 47.9361 329.216 47.9361 329.67V335H45.5895V329.557C45.5895 329.129 45.4664 328.788 45.2202 328.534C44.9777 328.28 44.6577 328.153 44.2599 328.153C43.991 328.153 43.7486 328.222 43.5327 328.358C43.3205 328.491 43.152 328.678 43.027 328.92C42.902 329.159 42.8395 329.439 42.8395 329.761V335H40.419Z" fill="#726E6E"/>
<path d="M651.324 327.71C651.278 327.252 651.083 326.896 650.739 326.642C650.394 326.388 649.926 326.261 649.335 326.261C648.934 326.261 648.595 326.318 648.318 326.432C648.042 326.542 647.83 326.695 647.682 326.892C647.538 327.089 647.466 327.312 647.466 327.562C647.458 327.771 647.502 327.953 647.597 328.108C647.695 328.263 647.83 328.398 648 328.511C648.17 328.621 648.367 328.718 648.591 328.801C648.814 328.881 649.053 328.949 649.307 329.006L650.352 329.256C650.86 329.369 651.326 329.521 651.75 329.71C652.174 329.9 652.542 330.133 652.852 330.409C653.163 330.686 653.403 331.011 653.574 331.386C653.748 331.761 653.837 332.191 653.841 332.676C653.837 333.388 653.655 334.006 653.295 334.528C652.939 335.047 652.424 335.451 651.75 335.739C651.08 336.023 650.271 336.165 649.324 336.165C648.384 336.165 647.566 336.021 646.869 335.733C646.176 335.445 645.634 335.019 645.244 334.455C644.858 333.886 644.655 333.184 644.636 332.347H647.017C647.044 332.737 647.155 333.062 647.352 333.324C647.553 333.581 647.82 333.777 648.153 333.909C648.491 334.038 648.871 334.102 649.295 334.102C649.712 334.102 650.074 334.042 650.381 333.92C650.691 333.799 650.932 333.631 651.102 333.415C651.273 333.199 651.358 332.951 651.358 332.67C651.358 332.409 651.28 332.189 651.125 332.011C650.973 331.833 650.75 331.682 650.455 331.557C650.163 331.432 649.805 331.318 649.381 331.216L648.114 330.898C647.133 330.659 646.358 330.286 645.79 329.778C645.222 329.271 644.939 328.587 644.943 327.727C644.939 327.023 645.127 326.407 645.506 325.881C645.888 325.354 646.413 324.943 647.08 324.648C647.746 324.352 648.504 324.205 649.352 324.205C650.216 324.205 650.97 324.352 651.614 324.648C652.261 324.943 652.765 325.354 653.125 325.881C653.485 326.407 653.67 327.017 653.682 327.71H651.324ZM657.939 336.165C657.382 336.165 656.886 336.068 656.45 335.875C656.015 335.678 655.67 335.388 655.416 335.006C655.166 334.619 655.041 334.138 655.041 333.562C655.041 333.078 655.13 332.67 655.308 332.341C655.486 332.011 655.729 331.746 656.036 331.545C656.342 331.345 656.691 331.193 657.081 331.091C657.475 330.989 657.888 330.917 658.32 330.875C658.827 330.822 659.236 330.773 659.547 330.727C659.857 330.678 660.083 330.606 660.223 330.511C660.363 330.417 660.433 330.277 660.433 330.091V330.057C660.433 329.697 660.32 329.419 660.092 329.222C659.869 329.025 659.551 328.926 659.138 328.926C658.702 328.926 658.356 329.023 658.098 329.216C657.84 329.405 657.67 329.644 657.587 329.932L655.348 329.75C655.462 329.22 655.685 328.761 656.018 328.375C656.352 327.985 656.782 327.686 657.308 327.477C657.839 327.265 658.452 327.159 659.149 327.159C659.634 327.159 660.098 327.216 660.541 327.33C660.988 327.443 661.384 327.619 661.729 327.858C662.077 328.097 662.352 328.403 662.553 328.778C662.753 329.15 662.854 329.595 662.854 330.114V336H660.558V334.79H660.49C660.35 335.062 660.162 335.303 659.928 335.511C659.693 335.716 659.411 335.877 659.081 335.994C658.751 336.108 658.371 336.165 657.939 336.165ZM658.632 334.494C658.988 334.494 659.303 334.424 659.575 334.284C659.848 334.14 660.062 333.947 660.217 333.705C660.373 333.462 660.45 333.187 660.45 332.881V331.955C660.375 332.004 660.27 332.049 660.138 332.091C660.009 332.129 659.863 332.165 659.7 332.199C659.537 332.229 659.375 332.258 659.212 332.284C659.049 332.307 658.901 332.328 658.768 332.347C658.484 332.388 658.236 332.455 658.024 332.545C657.812 332.636 657.647 332.759 657.53 332.915C657.412 333.066 657.354 333.256 657.354 333.483C657.354 333.812 657.473 334.064 657.712 334.239C657.954 334.409 658.261 334.494 658.632 334.494ZM664.777 336V324.364H667.197V328.739H667.271C667.377 328.504 667.531 328.265 667.732 328.023C667.936 327.777 668.201 327.572 668.527 327.409C668.857 327.242 669.266 327.159 669.754 327.159C670.391 327.159 670.978 327.326 671.516 327.659C672.054 327.989 672.483 328.487 672.805 329.153C673.127 329.816 673.288 330.648 673.288 331.648C673.288 332.621 673.131 333.443 672.817 334.114C672.506 334.78 672.082 335.286 671.544 335.631C671.01 335.972 670.411 336.142 669.749 336.142C669.279 336.142 668.879 336.064 668.55 335.909C668.224 335.754 667.957 335.559 667.749 335.324C667.54 335.085 667.381 334.845 667.271 334.602H667.163V336H664.777ZM667.146 331.636C667.146 332.155 667.218 332.608 667.362 332.994C667.506 333.381 667.714 333.682 667.987 333.898C668.26 334.11 668.591 334.216 668.982 334.216C669.375 334.216 669.709 334.108 669.982 333.892C670.254 333.672 670.461 333.369 670.601 332.983C670.745 332.593 670.817 332.144 670.817 331.636C670.817 331.133 670.747 330.689 670.607 330.307C670.466 329.924 670.26 329.625 669.987 329.409C669.714 329.193 669.379 329.085 668.982 329.085C668.588 329.085 668.254 329.189 667.982 329.398C667.713 329.606 667.506 329.902 667.362 330.284C667.218 330.667 667.146 331.117 667.146 331.636Z" fill="#726E6E"/>
<path d="M340.403 330.955H342.494L343.545 332.307L344.58 333.511L346.528 335.955H344.233L342.892 334.307L342.205 333.33L340.403 330.955ZM346.705 329.182C346.705 330.451 346.464 331.53 345.983 332.42C345.506 333.311 344.854 333.991 344.028 334.46C343.206 334.926 342.282 335.159 341.256 335.159C340.222 335.159 339.294 334.924 338.472 334.455C337.65 333.985 337 333.305 336.523 332.415C336.045 331.525 335.807 330.447 335.807 329.182C335.807 327.913 336.045 326.833 336.523 325.943C337 325.053 337.65 324.375 338.472 323.909C339.294 323.439 340.222 323.205 341.256 323.205C342.282 323.205 343.206 323.439 344.028 323.909C344.854 324.375 345.506 325.053 345.983 325.943C346.464 326.833 346.705 327.913 346.705 329.182ZM344.21 329.182C344.21 328.36 344.087 327.667 343.841 327.102C343.598 326.538 343.256 326.11 342.812 325.818C342.369 325.527 341.85 325.381 341.256 325.381C340.661 325.381 340.142 325.527 339.699 325.818C339.256 326.11 338.911 326.538 338.665 327.102C338.422 327.667 338.301 328.36 338.301 329.182C338.301 330.004 338.422 330.697 338.665 331.261C338.911 331.826 339.256 332.254 339.699 332.545C340.142 332.837 340.661 332.983 341.256 332.983C341.85 332.983 342.369 332.837 342.812 332.545C343.256 332.254 343.598 331.826 343.841 331.261C344.087 330.697 344.21 330.004 344.21 329.182ZM354.078 331.284V326.273H356.499V335H354.175V333.415H354.084C353.887 333.926 353.559 334.337 353.101 334.648C352.646 334.958 352.091 335.114 351.436 335.114C350.853 335.114 350.339 334.981 349.896 334.716C349.453 334.451 349.107 334.074 348.857 333.585C348.61 333.097 348.485 332.511 348.482 331.83V326.273H350.902V331.398C350.906 331.913 351.044 332.32 351.317 332.619C351.589 332.919 351.955 333.068 352.413 333.068C352.705 333.068 352.978 333.002 353.232 332.869C353.485 332.733 353.69 332.532 353.845 332.267C354.004 332.002 354.082 331.674 354.078 331.284ZM360.923 335.165C360.366 335.165 359.87 335.068 359.435 334.875C358.999 334.678 358.654 334.388 358.401 334.006C358.151 333.619 358.026 333.138 358.026 332.562C358.026 332.078 358.115 331.67 358.293 331.341C358.471 331.011 358.713 330.746 359.02 330.545C359.327 330.345 359.675 330.193 360.065 330.091C360.459 329.989 360.872 329.917 361.304 329.875C361.812 329.822 362.221 329.773 362.531 329.727C362.842 329.678 363.067 329.606 363.207 329.511C363.348 329.417 363.418 329.277 363.418 329.091V329.057C363.418 328.697 363.304 328.419 363.077 328.222C362.853 328.025 362.535 327.926 362.122 327.926C361.687 327.926 361.34 328.023 361.082 328.216C360.825 328.405 360.654 328.644 360.571 328.932L358.332 328.75C358.446 328.22 358.67 327.761 359.003 327.375C359.336 326.985 359.766 326.686 360.293 326.477C360.823 326.265 361.437 326.159 362.134 326.159C362.618 326.159 363.082 326.216 363.526 326.33C363.973 326.443 364.368 326.619 364.713 326.858C365.062 327.097 365.336 327.403 365.537 327.778C365.738 328.15 365.838 328.595 365.838 329.114V335H363.543V333.79H363.474C363.334 334.062 363.147 334.303 362.912 334.511C362.677 334.716 362.395 334.877 362.065 334.994C361.736 335.108 361.355 335.165 360.923 335.165ZM361.616 333.494C361.973 333.494 362.287 333.424 362.56 333.284C362.832 333.14 363.046 332.947 363.202 332.705C363.357 332.462 363.435 332.187 363.435 331.881V330.955C363.359 331.004 363.255 331.049 363.122 331.091C362.993 331.129 362.848 331.165 362.685 331.199C362.522 331.229 362.359 331.258 362.196 331.284C362.033 331.307 361.885 331.328 361.753 331.347C361.469 331.388 361.221 331.455 361.009 331.545C360.796 331.636 360.632 331.759 360.514 331.915C360.397 332.066 360.338 332.256 360.338 332.483C360.338 332.812 360.457 333.064 360.696 333.239C360.938 333.409 361.245 333.494 361.616 333.494Z" fill="#726E6E"/>
<path d="M551.324 327.71C551.278 327.252 551.083 326.896 550.739 326.642C550.394 326.388 549.926 326.261 549.335 326.261C548.934 326.261 548.595 326.318 548.318 326.432C548.042 326.542 547.83 326.695 547.682 326.892C547.538 327.089 547.466 327.312 547.466 327.562C547.458 327.771 547.502 327.953 547.597 328.108C547.695 328.263 547.83 328.398 548 328.511C548.17 328.621 548.367 328.718 548.591 328.801C548.814 328.881 549.053 328.949 549.307 329.006L550.352 329.256C550.86 329.369 551.326 329.521 551.75 329.71C552.174 329.9 552.542 330.133 552.852 330.409C553.163 330.686 553.403 331.011 553.574 331.386C553.748 331.761 553.837 332.191 553.841 332.676C553.837 333.388 553.655 334.006 553.295 334.528C552.939 335.047 552.424 335.451 551.75 335.739C551.08 336.023 550.271 336.165 549.324 336.165C548.384 336.165 547.566 336.021 546.869 335.733C546.176 335.445 545.634 335.019 545.244 334.455C544.858 333.886 544.655 333.184 544.636 332.347H547.017C547.044 332.737 547.155 333.062 547.352 333.324C547.553 333.581 547.82 333.777 548.153 333.909C548.491 334.038 548.871 334.102 549.295 334.102C549.712 334.102 550.074 334.042 550.381 333.92C550.691 333.799 550.932 333.631 551.102 333.415C551.273 333.199 551.358 332.951 551.358 332.67C551.358 332.409 551.28 332.189 551.125 332.011C550.973 331.833 550.75 331.682 550.455 331.557C550.163 331.432 549.805 331.318 549.381 331.216L548.114 330.898C547.133 330.659 546.358 330.286 545.79 329.778C545.222 329.271 544.939 328.587 544.943 327.727C544.939 327.023 545.127 326.407 545.506 325.881C545.888 325.354 546.413 324.943 547.08 324.648C547.746 324.352 548.504 324.205 549.352 324.205C550.216 324.205 550.97 324.352 551.614 324.648C552.261 324.943 552.765 325.354 553.125 325.881C553.485 326.407 553.67 327.017 553.682 327.71H551.324ZM559.428 336.17C558.53 336.17 557.757 335.989 557.109 335.625C556.465 335.258 555.969 334.739 555.621 334.068C555.272 333.394 555.098 332.597 555.098 331.676C555.098 330.778 555.272 329.991 555.621 329.312C555.969 328.634 556.46 328.106 557.092 327.727C557.729 327.348 558.475 327.159 559.331 327.159C559.907 327.159 560.443 327.252 560.939 327.438C561.439 327.619 561.875 327.894 562.246 328.261C562.621 328.629 562.912 329.091 563.121 329.648C563.329 330.201 563.433 330.848 563.433 331.591V332.256H556.064V330.756H561.155C561.155 330.407 561.079 330.098 560.928 329.83C560.776 329.561 560.566 329.35 560.297 329.199C560.032 329.044 559.723 328.966 559.371 328.966C559.003 328.966 558.678 329.051 558.393 329.222C558.113 329.388 557.893 329.614 557.734 329.898C557.575 330.178 557.494 330.491 557.49 330.835V332.261C557.49 332.693 557.57 333.066 557.729 333.381C557.892 333.695 558.121 333.938 558.416 334.108C558.712 334.278 559.062 334.364 559.467 334.364C559.736 334.364 559.982 334.326 560.206 334.25C560.429 334.174 560.621 334.061 560.78 333.909C560.939 333.758 561.06 333.572 561.143 333.352L563.382 333.5C563.268 334.038 563.036 334.508 562.683 334.909C562.335 335.307 561.884 335.617 561.331 335.841C560.782 336.061 560.147 336.17 559.428 336.17ZM566.879 327.273L568.482 330.324L570.124 327.273H572.607L570.078 331.636L572.675 336H570.203L568.482 332.983L566.788 336H564.288L566.879 331.636L564.379 327.273H566.879Z" fill="#726E6E"/>
<path d="M446.403 330.955H448.494L449.545 332.307L450.58 333.511L452.528 335.955H450.233L448.892 334.307L448.205 333.33L446.403 330.955ZM452.705 329.182C452.705 330.451 452.464 331.53 451.983 332.42C451.506 333.311 450.854 333.991 450.028 334.46C449.206 334.926 448.282 335.159 447.256 335.159C446.222 335.159 445.294 334.924 444.472 334.455C443.65 333.985 443 333.305 442.523 332.415C442.045 331.525 441.807 330.447 441.807 329.182C441.807 327.913 442.045 326.833 442.523 325.943C443 325.053 443.65 324.375 444.472 323.909C445.294 323.439 446.222 323.205 447.256 323.205C448.282 323.205 449.206 323.439 450.028 323.909C450.854 324.375 451.506 325.053 451.983 325.943C452.464 326.833 452.705 327.913 452.705 329.182ZM450.21 329.182C450.21 328.36 450.087 327.667 449.841 327.102C449.598 326.538 449.256 326.11 448.812 325.818C448.369 325.527 447.85 325.381 447.256 325.381C446.661 325.381 446.142 325.527 445.699 325.818C445.256 326.11 444.911 326.538 444.665 327.102C444.422 327.667 444.301 328.36 444.301 329.182C444.301 330.004 444.422 330.697 444.665 331.261C444.911 331.826 445.256 332.254 445.699 332.545C446.142 332.837 446.661 332.983 447.256 332.983C447.85 332.983 448.369 332.837 448.812 332.545C449.256 332.254 449.598 331.826 449.841 331.261C450.087 330.697 450.21 330.004 450.21 329.182ZM460.078 331.284V326.273H462.499V335H460.175V333.415H460.084C459.887 333.926 459.559 334.337 459.101 334.648C458.646 334.958 458.091 335.114 457.436 335.114C456.853 335.114 456.339 334.981 455.896 334.716C455.453 334.451 455.107 334.074 454.857 333.585C454.61 333.097 454.485 332.511 454.482 331.83V326.273H456.902V331.398C456.906 331.913 457.044 332.32 457.317 332.619C457.589 332.919 457.955 333.068 458.413 333.068C458.705 333.068 458.978 333.002 459.232 332.869C459.485 332.733 459.69 332.532 459.845 332.267C460.004 332.002 460.082 331.674 460.078 331.284ZM464.435 335V326.273H466.855V335H464.435ZM465.651 325.148C465.291 325.148 464.982 325.028 464.724 324.79C464.471 324.547 464.344 324.258 464.344 323.92C464.344 323.587 464.471 323.301 464.724 323.062C464.982 322.82 465.291 322.699 465.651 322.699C466.01 322.699 466.317 322.82 466.571 323.062C466.829 323.301 466.957 323.587 466.957 323.92C466.957 324.258 466.829 324.547 466.571 324.79C466.317 325.028 466.01 325.148 465.651 325.148Z" fill="#726E6E"/>
<path d="M224.568 325.392V323.364H234.125V325.392H230.562V335H228.131V325.392H224.568ZM238.365 335.17C237.467 335.17 236.695 334.989 236.047 334.625C235.403 334.258 234.907 333.739 234.558 333.068C234.21 332.394 234.036 331.597 234.036 330.676C234.036 329.778 234.21 328.991 234.558 328.312C234.907 327.634 235.397 327.106 236.03 326.727C236.666 326.348 237.412 326.159 238.268 326.159C238.844 326.159 239.38 326.252 239.876 326.438C240.376 326.619 240.812 326.894 241.183 327.261C241.558 327.629 241.85 328.091 242.058 328.648C242.267 329.201 242.371 329.848 242.371 330.591V331.256H235.001V329.756H240.092C240.092 329.407 240.017 329.098 239.865 328.83C239.714 328.561 239.503 328.35 239.234 328.199C238.969 328.044 238.661 327.966 238.308 327.966C237.941 327.966 237.615 328.051 237.331 328.222C237.051 328.388 236.831 328.614 236.672 328.898C236.513 329.178 236.431 329.491 236.428 329.835V331.261C236.428 331.693 236.507 332.066 236.666 332.381C236.829 332.695 237.058 332.938 237.354 333.108C237.649 333.278 238 333.364 238.405 333.364C238.674 333.364 238.92 333.326 239.143 333.25C239.367 333.174 239.558 333.061 239.717 332.909C239.876 332.758 239.998 332.572 240.081 332.352L242.32 332.5C242.206 333.038 241.973 333.508 241.621 333.909C241.272 334.307 240.821 334.617 240.268 334.841C239.719 335.061 239.085 335.17 238.365 335.17ZM243.95 335V326.273H246.297V327.795H246.388C246.547 327.254 246.814 326.845 247.189 326.568C247.564 326.288 247.996 326.148 248.484 326.148C248.606 326.148 248.736 326.155 248.876 326.17C249.017 326.186 249.14 326.206 249.246 326.233V328.381C249.132 328.347 248.975 328.316 248.774 328.29C248.573 328.263 248.39 328.25 248.223 328.25C247.867 328.25 247.549 328.328 247.268 328.483C246.992 328.634 246.772 328.847 246.609 329.119C246.45 329.392 246.371 329.706 246.371 330.062V335H243.95Z" fill="#726E6E"/>
<path d="M128.324 326.71C128.278 326.252 128.083 325.896 127.739 325.642C127.394 325.388 126.926 325.261 126.335 325.261C125.934 325.261 125.595 325.318 125.318 325.432C125.042 325.542 124.83 325.695 124.682 325.892C124.538 326.089 124.466 326.312 124.466 326.562C124.458 326.771 124.502 326.953 124.597 327.108C124.695 327.263 124.83 327.398 125 327.511C125.17 327.621 125.367 327.718 125.591 327.801C125.814 327.881 126.053 327.949 126.307 328.006L127.352 328.256C127.86 328.369 128.326 328.521 128.75 328.71C129.174 328.9 129.542 329.133 129.852 329.409C130.163 329.686 130.403 330.011 130.574 330.386C130.748 330.761 130.837 331.191 130.841 331.676C130.837 332.388 130.655 333.006 130.295 333.528C129.939 334.047 129.424 334.451 128.75 334.739C128.08 335.023 127.271 335.165 126.324 335.165C125.384 335.165 124.566 335.021 123.869 334.733C123.176 334.445 122.634 334.019 122.244 333.455C121.858 332.886 121.655 332.184 121.636 331.347H124.017C124.044 331.737 124.155 332.062 124.352 332.324C124.553 332.581 124.82 332.777 125.153 332.909C125.491 333.038 125.871 333.102 126.295 333.102C126.712 333.102 127.074 333.042 127.381 332.92C127.691 332.799 127.932 332.631 128.102 332.415C128.273 332.199 128.358 331.951 128.358 331.67C128.358 331.409 128.28 331.189 128.125 331.011C127.973 330.833 127.75 330.682 127.455 330.557C127.163 330.432 126.805 330.318 126.381 330.216L125.114 329.898C124.133 329.659 123.358 329.286 122.79 328.778C122.222 328.271 121.939 327.587 121.943 326.727C121.939 326.023 122.127 325.407 122.506 324.881C122.888 324.354 123.413 323.943 124.08 323.648C124.746 323.352 125.504 323.205 126.352 323.205C127.216 323.205 127.97 323.352 128.614 323.648C129.261 323.943 129.765 324.354 130.125 324.881C130.485 325.407 130.67 326.017 130.682 326.71H128.324ZM136.428 335.17C135.53 335.17 134.757 334.989 134.109 334.625C133.465 334.258 132.969 333.739 132.621 333.068C132.272 332.394 132.098 331.597 132.098 330.676C132.098 329.778 132.272 328.991 132.621 328.312C132.969 327.634 133.46 327.106 134.092 326.727C134.729 326.348 135.475 326.159 136.331 326.159C136.907 326.159 137.443 326.252 137.939 326.438C138.439 326.619 138.875 326.894 139.246 327.261C139.621 327.629 139.912 328.091 140.121 328.648C140.329 329.201 140.433 329.848 140.433 330.591V331.256H133.064V329.756H138.155C138.155 329.407 138.079 329.098 137.928 328.83C137.776 328.561 137.566 328.35 137.297 328.199C137.032 328.044 136.723 327.966 136.371 327.966C136.003 327.966 135.678 328.051 135.393 328.222C135.113 328.388 134.893 328.614 134.734 328.898C134.575 329.178 134.494 329.491 134.49 329.835V331.261C134.49 331.693 134.57 332.066 134.729 332.381C134.892 332.695 135.121 332.938 135.416 333.108C135.712 333.278 136.062 333.364 136.467 333.364C136.736 333.364 136.982 333.326 137.206 333.25C137.429 333.174 137.621 333.061 137.78 332.909C137.939 332.758 138.06 332.572 138.143 332.352L140.382 332.5C140.268 333.038 140.036 333.508 139.683 333.909C139.335 334.307 138.884 334.617 138.331 334.841C137.782 335.061 137.147 335.17 136.428 335.17ZM145.945 338.455C145.161 338.455 144.488 338.347 143.928 338.131C143.371 337.919 142.928 337.629 142.598 337.261C142.268 336.894 142.054 336.481 141.956 336.023L144.195 335.722C144.263 335.896 144.371 336.059 144.518 336.21C144.666 336.362 144.861 336.483 145.104 336.574C145.35 336.669 145.649 336.716 146.001 336.716C146.528 336.716 146.962 336.587 147.303 336.33C147.647 336.076 147.82 335.65 147.82 335.051V333.455H147.717C147.611 333.697 147.452 333.926 147.24 334.142C147.028 334.358 146.755 334.534 146.422 334.67C146.089 334.807 145.691 334.875 145.229 334.875C144.573 334.875 143.977 334.723 143.439 334.42C142.905 334.114 142.479 333.646 142.161 333.017C141.846 332.384 141.689 331.585 141.689 330.619C141.689 329.631 141.85 328.805 142.172 328.142C142.494 327.479 142.922 326.983 143.456 326.653C143.994 326.324 144.583 326.159 145.223 326.159C145.712 326.159 146.121 326.242 146.45 326.409C146.78 326.572 147.045 326.777 147.246 327.023C147.45 327.265 147.607 327.504 147.717 327.739H147.808V326.273H150.212V335.085C150.212 335.828 150.03 336.449 149.666 336.949C149.303 337.449 148.799 337.824 148.155 338.074C147.515 338.328 146.778 338.455 145.945 338.455ZM145.996 333.057C146.386 333.057 146.715 332.96 146.984 332.767C147.257 332.57 147.465 332.29 147.609 331.926C147.757 331.559 147.831 331.119 147.831 330.608C147.831 330.097 147.759 329.653 147.615 329.278C147.471 328.9 147.263 328.606 146.99 328.398C146.717 328.189 146.386 328.085 145.996 328.085C145.598 328.085 145.263 328.193 144.99 328.409C144.717 328.621 144.511 328.917 144.371 329.295C144.231 329.674 144.161 330.112 144.161 330.608C144.161 331.112 144.231 331.547 144.371 331.915C144.515 332.278 144.721 332.561 144.99 332.761C145.263 332.958 145.598 333.057 145.996 333.057Z" fill="#726E6E"/>
<path d="M0 165C0 160.582 3.58172 157 8 157H65C69.4183 157 73 160.582 73 165V292C73 296.418 69.4183 300 65 300H8C3.58172 300 0 296.418 0 292V165Z" fill="url(#paint0_linear_71_2)"/>
<path d="M622 165C622 160.582 625.582 157 630 157H687C691.418 157 695 160.582 695 165V292C695 296.418 691.418 300 687 300H630C625.582 300 622 296.418 622 292V165Z" fill="url(#paint1_linear_71_2)"/>
<path d="M103 32C103 27.5817 106.582 24 111 24H168C172.418 24 176 27.5817 176 32V292C176 296.418 172.418 300 168 300H111C106.582 300 103 296.418 103 292V32Z" fill="url(#paint2_linear_71_2)"/>
<path d="M208 78C208 73.5817 211.582 70 216 70H273C277.418 70 281 73.5817 281 78V292C281 296.418 277.418 300 273 300H216C211.582 300 208 296.418 208 292V78Z" fill="url(#paint3_linear_71_2)"/>
<path d="M418 7.99999C418 3.58171 421.582 0 426 0H483C487.418 0 491 3.58172 491 8V292C491 296.418 487.418 300 483 300H426C421.582 300 418 296.418 418 292V7.99999Z" fill="url(#paint4_linear_71_2)"/>
<path d="M522 7.99999C522 3.58171 525.582 0 530 0H587C591.418 0 595 3.58172 595 8V292C595 296.418 591.418 300 587 300H530C525.582 300 522 296.418 522 292V7.99999Z" fill="url(#paint5_linear_71_2)"/>
<path d="M315 78C315 73.5817 318.582 70 323 70H380C384.418 70 388 73.5817 388 78V292C388 296.418 384.418 300 380 300H323C318.582 300 315 296.418 315 292V78Z" fill="url(#paint6_linear_71_2)"/>
<defs>
<linearGradient id="paint0_linear_71_2" x1="36.5" y1="157" x2="36" y2="279" gradientUnits="userSpaceOnUse">
<stop stop-color="#E32D38"/>
<stop offset="1" stop-color="#E32D38" stop-opacity="0.31"/>
</linearGradient>
<linearGradient id="paint1_linear_71_2" x1="658.5" y1="157" x2="658" y2="279" gradientUnits="userSpaceOnUse">
<stop stop-color="#E32D38"/>
<stop offset="1" stop-color="#E32D38" stop-opacity="0.31"/>
</linearGradient>
<linearGradient id="paint2_linear_71_2" x1="139.5" y1="24" x2="137.638" y2="259.458" gradientUnits="userSpaceOnUse">
<stop stop-color="#E32D38"/>
<stop offset="1" stop-color="#E32D38" stop-opacity="0.31"/>
</linearGradient>
<linearGradient id="paint3_linear_71_2" x1="244.5" y1="70" x2="243.207" y2="266.219" gradientUnits="userSpaceOnUse">
<stop stop-color="#E32D38"/>
<stop offset="1" stop-color="#E32D38" stop-opacity="0.31"/>
</linearGradient>
<linearGradient id="paint4_linear_71_2" x1="454.5" y1="-6.38337e-08" x2="452.3" y2="255.929" gradientUnits="userSpaceOnUse">
<stop stop-color="#E32D38"/>
<stop offset="1" stop-color="#E32D38" stop-opacity="0.31"/>
</linearGradient>
<linearGradient id="paint5_linear_71_2" x1="558.5" y1="-6.38337e-08" x2="556.3" y2="255.929" gradientUnits="userSpaceOnUse">
<stop stop-color="#E32D38"/>
<stop offset="1" stop-color="#E32D38" stop-opacity="0.31"/>
</linearGradient>
<linearGradient id="paint6_linear_71_2" x1="351.5" y1="70" x2="350.207" y2="266.219" gradientUnits="userSpaceOnUse">
<stop stop-color="#E32D38"/>
<stop offset="1" stop-color="#E32D38" stop-opacity="0.31"/>
</linearGradient>
</defs>
</svg>
