<svg width="45" height="27" viewBox="0 0 45 27" fill="none" xmlns="http://www.w3.org/2000/svg">
<path d="M22.5 0C24.2405 0 25.9097 0.686636 27.1404 1.90886C28.3711 3.13108 29.0625 4.78876 29.0625 6.51724C29.0625 8.24572 28.3711 9.90341 27.1404 11.1256C25.9097 12.3478 24.2405 13.0345 22.5 13.0345C20.7595 13.0345 19.0903 12.3478 17.8596 11.1256C16.6289 9.90341 15.9375 8.24572 15.9375 6.51724C15.9375 4.78876 16.6289 3.13108 17.8596 1.90886C19.0903 0.686636 20.7595 0 22.5 0ZM9.375 4.65517C10.425 4.65517 11.4 4.93448 12.2438 5.43724C11.9625 8.1 12.75 10.7441 14.3625 12.811C13.425 14.5986 11.55 15.8276 9.375 15.8276C7.88316 15.8276 6.45242 15.239 5.39752 14.1914C4.34263 13.1438 3.75 11.7229 3.75 10.2414C3.75 8.75983 4.34263 7.33895 5.39752 6.29133C6.45242 5.24372 7.88316 4.65517 9.375 4.65517ZM35.625 4.65517C37.1168 4.65517 38.5476 5.24372 39.6025 6.29133C40.6574 7.33895 41.25 8.75983 41.25 10.2414C41.25 11.7229 40.6574 13.1438 39.6025 14.1914C38.5476 15.239 37.1168 15.8276 35.625 15.8276C33.45 15.8276 31.575 14.5986 30.6375 12.811C32.25 10.7441 33.0375 8.1 32.7562 5.43724C33.6 4.93448 34.575 4.65517 35.625 4.65517ZM10.3125 23.7414C10.3125 19.8869 15.7688 16.7586 22.5 16.7586C29.2313 16.7586 34.6875 19.8869 34.6875 23.7414V27H10.3125V23.7414ZM0 27V24.2069C0 21.6186 3.54375 19.44 8.34375 18.8069C7.2375 20.0731 6.5625 21.8234 6.5625 23.7414V27H0ZM45 27H38.4375V23.7414C38.4375 21.8234 37.7625 20.0731 36.6562 18.8069C41.4562 19.44 45 21.6186 45 24.2069V27Z" fill="#726E6E"/>
</svg>
