<svg width="32" height="32" viewBox="0 0 32 32" fill="none" xmlns="http://www.w3.org/2000/svg">
<g clip-path="url(#clip0_163_2)">
<path d="M32 28L26 32V30H16.5L20.5 26H26V24L32 28ZM0 4L6 0V2H15.5L11.5 6H6V8L0 4ZM19.48 0L0 19.48L12.52 32L32 12.52L19.48 0ZM2.78 19.48L19.48 2.78L29.22 12.52L12.52 29.22L2.78 19.48Z" fill="black" fill-opacity="0.58"/>
<path d="M8.33994 19.48L6.93994 20.88L11.1199 25.06L12.5199 23.66L13.9999 25.04L19.4799 19.48C18.5524 20.3806 17.3078 20.88 16.015 20.8705C14.7222 20.8609 13.4851 20.3432 12.571 19.429C11.6568 18.5148 11.139 17.2777 11.1295 15.985C11.1199 14.6922 11.6194 13.4476 12.5199 12.52L6.95994 18L8.33994 19.48Z" fill="black" fill-opacity="0.58"/>
<path d="M25.04 11.14L20.86 6.95996L19.46 8.35996L18 6.95996L12.52 12.52C13.4476 11.6194 14.6922 11.1199 15.985 11.1295C17.2777 11.139 18.5148 11.6568 19.429 12.571C20.3432 13.4851 20.8609 14.7222 20.8705 16.015C20.88 17.3078 20.3806 18.5524 19.48 19.48L25.04 14L23.64 12.6L25.04 11.14Z" fill="black" fill-opacity="0.58"/>
</g>
<defs>
<clipPath id="clip0_163_2">
<rect width="32" height="32" fill="white"/>
</clipPath>
</defs>
</svg>
